<?xml version="1.0" encoding="UTF-8" standalone="no"?>
<svg
   aria-hidden="true"
   focusable="false"
   data-prefix="fas"
   data-icon="code"
   class="svg-inline--fa fa-code fa-w-20"
   role="img"
   viewBox="0 0 640 512"
   version="1.1"
   id="svg179"
   sodipodi:docname="favicon.svg"
   inkscape:version="1.1 (c4e8f9ed74, 2021-05-24)"
   xmlns:inkscape="http://www.inkscape.org/namespaces/inkscape"
   xmlns:sodipodi="http://sodipodi.sourceforge.net/DTD/sodipodi-0.dtd"
   xmlns="http://www.w3.org/2000/svg"
   xmlns:svg="http://www.w3.org/2000/svg">
  <defs
     id="defs183" />
  <sodipodi:namedview
          id="namedview181"
          pagecolor="#505050"
          bordercolor="#ffffff"
          borderopacity="1"
          inkscape:pageshadow="0"
          inkscape:pageopacity="0"
          inkscape:pagecheckerboard="1"
          showgrid="false"
          inkscape:zoom="1.3203125"
          inkscape:cx="334.01183"
          inkscape:cy="256"
          inkscape:window-width="1920"
          inkscape:window-height="1023"
          inkscape:window-x="0"
          inkscape:window-y="29"
          inkscape:window-maximized="1"
          inkscape:current-layer="svg179" />
    <path
            fill="currentColor"
            d="M278.9 511.5l-61-17.7c-6.4-1.8-10-8.5-8.2-14.9L346.2 8.7c1.8-6.4 8.5-10 14.9-8.2l61 17.7c6.4 1.8 10 8.5 8.2 14.9L293.8 503.3c-1.9 6.4-8.5 10.1-14.9 8.2zm-114-112.2l43.5-46.4c4.6-4.9 4.3-12.7-.8-17.2L117 256l90.6-79.7c5.1-4.5 5.5-12.3.8-17.2l-43.5-46.4c-4.5-4.8-12.1-5.1-17-.5L3.8 247.2c-5.1 4.7-5.1 12.8 0 17.5l144.1 135.1c4.9 4.6 12.5 4.4 17-.5zm327.2.6l144.1-135.1c5.1-4.7 5.1-12.8 0-17.5L492.1 112.1c-4.8-4.5-12.4-4.3-17 .5L431.6 159c-4.6 4.9-4.3 12.7.8 17.2L523 256l-90.6 79.7c-5.1 4.5-5.5 12.3-.8 17.2l43.5 46.4c4.5 4.9 12.1 5.1 17 .6z"
            id="path177"
            style="fill:#ffffff;fill-opacity:1;stroke:#000000;stroke-opacity:1;stroke-width:23.8;stroke-miterlimit:4;stroke-dasharray:none;paint-order:normal"/>
</svg>
