<?xml version="1.0" encoding="UTF-8" standalone="no"?>
<!-- Created with Inkscape (http://www.inkscape.org/) -->

<svg
        width="309.47226mm"
        height="226.84914mm"
        viewBox="0 0 309.47225 226.84913"
        version="1.1"
        id="svg5"
        inkscape:version="1.1.2 (0a00cf5339, 2022-02-04, custom)"
        sodipodi:docname="favicon2.svg"
        xmlns:inkscape="http://www.inkscape.org/namespaces/inkscape"
        xmlns:sodipodi="http://sodipodi.sourceforge.net/DTD/sodipodi-0.dtd"
        xmlns="http://www.w3.org/2000/svg"
        xmlns:svg="http://www.w3.org/2000/svg">
  <sodipodi:namedview
          id="namedview7"
          pagecolor="#505050"
          bordercolor="#ffffff"
          borderopacity="1"
          inkscape:pageshadow="0"
          inkscape:pageopacity="0"
          inkscape:pagecheckerboard="1"
          inkscape:document-units="mm"
          showgrid="false"
          inkscape:zoom="0.64"
          inkscape:cx="667.96875"
          inkscape:cy="378.90625"
          inkscape:window-width="1920"
          inkscape:window-height="1020"
          inkscape:window-x="0"
          inkscape:window-y="32"
          inkscape:window-maximized="1"
          inkscape:current-layer="layer1"
          inkscape:snap-bbox="true"
          inkscape:bbox-nodes="true"
          inkscape:object-paths="true"
          inkscape:snap-intersection-paths="true"
          inkscape:bbox-paths="false"
          inkscape:object-nodes="true"
          inkscape:snap-midpoints="true"
          inkscape:snap-smooth-nodes="true"
          inkscape:snap-page="true"/>
  <defs
          id="defs2"/>
  <g
          inkscape:label="Layer 1"
          inkscape:groupmode="layer"
          id="layer1"
          transform="translate(458.4503,-149.46394)">
    <path
            id="rect34604"
            style="stroke-width:0.507386;stroke-linejoin:round"
            d="M -58.74925,78.762155 H 83.244712 l 30.101308,30.432605 2.49257,73.26341 -0.72377,66.75929 -31.870108,36.93669 H -55.522115 l -23.808147,-19.49021 -8.785919,-84.20579 1.311608,-71.97533 z"
            sodipodi:nodetypes="ccccccccccc"/>
    <g
            aria-label="{AT}"
            transform="matrix(0.90286779,0,0,1.3187009,-2.6421379,0)"
            id="text29838"
            style="font-size:183.005px;line-height:1.25;font-family:'Aldo the Apache';-inkscape-font-specification:'Aldo the Apache';fill:#fefefe;stroke-width:8.0407">
      <path
              d="m -113.97081,131.6602 h 2.50202 q 2.32331,0 3.93175,-1.60844 1.60844,-1.6978 1.60844,-4.02111 V 99.938141 q 0,-11.080381 5.45084,-20.194888 5.450828,-9.114507 14.565335,-14.56534 9.203865,-5.450832 20.194888,-5.450832 h 7.148633 v 16.084424 h -7.148633 q -3.574316,0 -8.220928,1.876516 -4.646611,1.787158 -8.042212,5.897622 -3.395601,4.110464 -3.395601,10.991023 v 30.381694 q 0,4.46789 -2.591379,8.22092 -2.502022,3.66368 -6.701844,5.18276 4.199822,1.60845 6.701844,5.27212 2.591379,3.66367 2.591379,8.13157 v 30.38169 q 0,6.88056 3.395601,10.99102 3.395601,4.11047 8.042212,5.98698 4.646612,1.78716 8.220928,1.78716 h 7.148633 v 16.08443 h -7.148633 q -10.991023,0 -20.194888,-5.45084 -9.114507,-5.45083 -14.565335,-14.56534 -5.45084,-9.20386 -5.45084,-20.19488 v -26.09251 q 0,-2.32331 -1.60844,-3.93175 -1.60844,-1.6978 -3.93175,-1.6978 h -2.50202 z"
              style="font-family:'California Gothic';-inkscape-font-specification:'California Gothic'"
              id="path34733"/>
      <path
              d="M -37.123004,200.91258 H -57.675323 L -26.400054,75.811505 H -4.9541551 L 26.321114,200.91258 H 5.7687944 L -0.12882781,177.67953 H -31.225381 Z m 10.633592,-41.99822 h 21.6246148 l -10.8123078,-42.445 z"
              style="font-family:'California Gothic';-inkscape-font-specification:'California Gothic'"
              id="path34735"/>
      <path
              d="M 43.745902,200.91258 V 97.257404 H 20.066055 V 75.811505 H 89.765227 V 97.257404 H 66.08538 V 200.91258 Z"
              style="font-family:'California Gothic';-inkscape-font-specification:'California Gothic'"
              id="path34737"/>
      <path
              d="m 102.27535,59.727081 q 11.08038,0 20.19489,5.450832 9.11451,5.450833 14.56534,14.56534 5.45083,9.114507 5.45083,20.194888 v 26.092509 q 0,2.32331 1.60844,4.02111 1.60845,1.60844 3.93175,1.60844 h 2.50202 v 13.40369 h -2.50202 q -2.3233,0 -3.93175,1.6978 -1.60844,1.60844 -1.60844,3.93175 v 26.09251 q 0,10.99102 -5.45083,20.19488 -5.45083,9.11451 -14.56534,14.56534 -9.11451,5.45084 -20.19489,5.45084 h -7.148632 v -16.08443 h 7.148632 q 3.66368,0 8.22093,-1.78716 4.64661,-1.87651 8.04221,-5.98698 3.3956,-4.11046 3.3956,-10.99102 v -30.38169 q 0,-4.4679 2.50202,-8.13157 2.59138,-3.66367 6.7912,-5.27212 -4.19982,-1.51908 -6.7912,-5.18276 -2.50202,-3.75303 -2.50202,-8.22092 V 94.576666 q 0,-6.880559 -3.3956,-10.991023 -3.3956,-4.110464 -8.04221,-5.897622 -4.55725,-1.876516 -8.22093,-1.876516 H 95.126718 V 59.727081 Z"
              style="font-family:'California Gothic';-inkscape-font-specification:'California Gothic'"
              id="path34739"/>
    </g>
    <text
            xml:space="preserve"
            style="font-size:183.005px;line-height:1.25;font-family:'Aldo the Apache';-inkscape-font-specification:'Aldo the Apache';fill:#fefefe;fill-opacity:1;stroke:none;stroke-width:8.0407;stroke-miterlimit:4;stroke-dasharray:none;stroke-opacity:1"
            x="-620.11426"
            y="265.23596"
            id="text34731"
            inkscape:export-filename="/home/andrea/Projects/AndreaTerenz.github.io/icons/icon2.png"
            inkscape:export-xdpi="6.37638"
            inkscape:export-ydpi="6.37638"
            transform="scale(0.75832206,1.3187009)"><tspan
         sodipodi:role="line"
         id="tspan34729"
         style="font-style:normal;font-variant:normal;font-weight:normal;font-stretch:normal;font-family:'JetBrains Mono';-inkscape-font-specification:'JetBrains Mono';fill:#fefefe;fill-opacity:1;stroke:none;stroke-width:8.0407;stroke-miterlimit:4;stroke-dasharray:none;stroke-opacity:1"
         x="-620.11426"
         y="265.23596"><tspan
   style="font-style:normal;font-variant:normal;font-weight:800;font-stretch:normal;font-family:'JetBrains Mono';-inkscape-font-specification:'JetBrains Mono Ultra-Bold'"
   id="tspan61191"><tspan
   style="font-style:normal;font-variant:normal;font-weight:normal;font-stretch:normal;font-family:'JetBrains Mono';-inkscape-font-specification:'JetBrains Mono'"
   id="tspan72167">{</tspan>AT</tspan>}</tspan></text>
  </g>
</svg>
