<?xml version="1.0" standalone="no"?>
<!DOCTYPE svg PUBLIC "-//W3C//DTD SVG 20010904//EN"
 "http://www.w3.org/TR/2001/REC-SVG-20010904/DTD/svg10.dtd">
<svg version="1.0" xmlns="http://www.w3.org/2000/svg"
 width="173.000000pt" height="173.000000pt" viewBox="0 0 173.000000 173.000000"
 preserveAspectRatio="xMidYMid meet">
<metadata>
Created by potrace 1.14, written by Peter Selinger 2001-2017
</metadata>
<g transform="translate(0.000000,173.000000) scale(0.100000,-0.100000)"
fill="#000000" stroke="none">
<path d="M238 1493 c-30 -19 -62 -72 -74 -123 -6 -31 -6 -171 0 -310 2 -49 -9
-90 -27 -102 -7 -4 -39 -8 -72 -8 l-60 0 0 -80 0 -80 60 0 c36 0 69 -6 80 -14
19 -14 19 -13 14 -276 -2 -108 5 -150 33 -202 27 -48 71 -71 127 -66 l45 3 0
68 c1 75 -5 85 -48 85 -52 -1 -57 18 -54 212 2 160 0 179 -19 222 l-22 48 22
47 c19 44 21 62 19 223 -3 200 1 212 61 212 21 0 37 5 38 12 1 6 2 41 3 79 l1
67 -50 0 c-29 0 -61 -8 -77 -17z"/>
<path d="M1368 1503 c-3 -7 -3 -110 1 -138 0 -5 18 -11 38 -12 60 -3 63 -14
61 -218 -1 -165 0 -184 20 -223 l21 -43 -22 -47 c-19 -43 -21 -62 -19 -222 3
-197 -1 -211 -59 -213 -19 -1 -36 -4 -39 -8 -3 -4 -5 -38 -4 -76 l0 -68 43 -3
c57 -4 91 11 119 53 35 51 42 95 41 250 -2 201 -1 227 11 239 6 6 41 13 78 16
l67 5 0 73 c0 41 -2 75 -5 77 -4 2 -32 5 -64 6 -94 4 -90 -9 -87 264 2 178
-16 241 -79 279 -28 16 -116 22 -122 9z"/>
<path d="M561 1381 c-5 -3 -12 -24 -15 -46 -14 -88 -25 -162 -31 -210 -3 -27
-22 -160 -41 -295 -19 -135 -37 -263 -40 -285 -3 -22 -10 -69 -15 -104 -6 -41
-6 -66 0 -70 7 -5 100 -6 132 -2 4 1 12 40 18 89 19 137 14 129 65 127 25 0
48 -4 52 -8 7 -7 10 -23 20 -127 4 -36 10 -70 14 -75 7 -9 137 -11 145 -3 2 2
-5 57 -15 123 -10 66 -21 138 -24 160 -3 22 -17 123 -32 225 -14 102 -27 194
-29 205 -1 11 -6 43 -10 70 -5 28 -9 59 -10 70 -8 88 -19 147 -29 152 -13 9
-142 12 -155 4z m86 -413 c0 -7 4 -48 8 -90 l7 -78 -26 0 c-28 0 -28 -3 -11
100 2 14 4 37 4 53 1 26 17 40 18 15z"/>
<path d="M879 1328 c-1 -32 -1 -65 -1 -73 0 -8 0 -37 1 -64 l1 -49 53 0 c28 0
60 0 70 -1 16 -1 17 -26 17 -386 0 -360 1 -385 18 -386 87 -4 115 -3 120 6 4
6 7 179 8 385 1 206 2 377 3 380 0 3 31 5 68 5 l68 0 0 120 0 120 -212 0 -213
0 -1 -57z"/>
</g>
</svg>
